PathFileType	4	(X/Y/Z)	D:\Share\Shared_Data\Ergonomics\Sit To Stand Pertubation\S2\Perturbed.trc
DataRate	CameraRate	NumFrames	NumMarkers	Units	OrigDataRate	OrigDataStartFrame	OrigNumFrames	
100	100	9	18	m	100	18561	191
Frame#	Time	R_Toe			R_ASIS			R_Pelvis			V_Sacral			L_Pelvis			L_ASIS			Clavical			R_Acromium			L_Acromium			Sternum			Torso			R_Thigh_Med			R_Thigh_Lat			R_Thigh			R_Shank_Med			R_Shank_Lat			R_Shank			R_Heel			
		X1	Y1	Z1	X2	Y2	Z2	X3	Y3	Z3	X4	Y4	Z4	X5	Y5	Z5	X6	Y6	Z6	X7	Y7	Z7	X8	Y8	Z8	X9	Y9	Z9	X10	Y10	Z10	X11	Y11	Z11	X12	Y12	Z12	X13	Y13	Z13	X14	Y14	Z14	X15	Y15	Z15	X16	Y16	Z16	X17	Y17	Z17	X18	Y18	Z18	

18561	185.6	0.41598486	0.066441216	0.13703697	-0.081754768	0.64135913	0.11890741	-0.16282494	0.6402984	0.16136919	-0.2955466	0.58018109	0.0089082623	-0.20359062	0.6328924	-0.18241481	-0.10536065	0.64960559	-0.15099696	-0.048786495	1.0288264	-0.012350512	-0.1451132	1.0557946	0.19194795	-0.14930794	1.0582781	-0.19892421	-0.017565823	0.86694452	-0.012203128	-0.040267868	0.98541602	-0.12740891	0.30963974	0.50994666	0.12213702	0.27550339	0.51496991	0.22486603	0.11947154	0.62248102	0.16900148	0.28083603	0.11234673	0.10049971	0.25868744	0.10155969	0.19165106	0.27795206	0.36165427	0.23517644	0.1783004	0.061943527	0.13715546
18562	185.61	0.41597382	0.06645945	0.13703816	-0.082122688	0.64133649	0.11890646	-0.16317767	0.6403266	0.16138324	-0.29591998	0.57999957	0.0088609896	-0.2039897	0.63292255	-0.18240968	-0.10548701	0.64980951	-0.15110442	-0.046199448	1.0278361	-0.012259512	-0.14236998	1.0555331	0.19200774	-0.14655551	1.0581875	-0.19885136	-0.016296215	0.86568567	-0.012181487	-0.03812611	0.98431573	-0.12739236	0.30922586	0.50995325	0.12193834	0.27515405	0.51500366	0.22466068	0.1191906	0.62252692	0.16894366	0.28081439	0.11234794	0.10050503	0.25872348	0.10164741	0.19187083	0.27768225	0.36172617	0.23506888	0.17828934	0.061941223	0.13717189
18563	185.62	0.41596274	0.06647744	0.13703893	-0.082498451	0.64132556	0.11889933	-0.16354158	0.64035699	0.16141118	-0.29630356	0.57982013	0.0088133526	-0.20439799	0.63295416	-0.18240388	-0.10565557	0.64997388	-0.15120474	-0.043437698	1.0267504	-0.012154945	-0.13942299	1.0552279	0.19207925	-0.14361037	1.0580765	-0.19877582	-0.014947725	0.86432751	-0.012151985	-0.035838955	0.98312415	-0.12736237	0.30879816	0.50995767	0.12174152	0.27479733	0.51503845	0.22445833	0.11890263	0.62257861	0.16888342	0.28078928	0.11234767	0.1005101	0.25877829	0.10177597	0.19217909	0.27740573	0.36179541	0.23495439	0.17827788	0.061938892	0.13718884
18564	185.63	0.41595157	0.066495041	0.13703951	-0.082879066	0.64132623	0.11888722	-0.16389574	0.6404101	0.16145114	-0.2967001	0.57964233	0.0087686214	-0.20481589	0.63298669	-0.18239499	-0.10598438	0.64999481	-0.15128017	-0.040498688	1.0255609	-0.012038511	-0.13626433	1.0548693	0.19216154	-0.14046455	1.0579329	-0.19869814	-0.013517837	0.86286584	-0.012115555	-0.033398853	0.98183765	-0.12731724	0.30835834	0.5099588	0.12154427	0.27443307	0.51507477	0.22425726	0.11860739	0.62263544	0.16881924	0.28076062	0.1123456	0.10051443	0.25884964	0.10194453	0.19256972	0.27712122	0.36185986	0.23482463	0.17826614	0.061935947	0.13720573
18565	185.64	0.41594049	0.066512054	0.13704016	-0.083256508	0.64133807	0.11887234	-0.16422925	0.64049622	0.16150146	-0.29711194	0.57946368	0.0087296276	-0.20524445	0.63302008	-0.1823811	-0.10652987	0.64982574	-0.1513215	-0.037380009	1.0242614	-0.011910131	-0.13288675	1.0544469	0.19225401	-0.13711011	1.0577439	-0.19861723	-0.012003119	0.86129657	-0.012072129	-0.030796949	0.98045343	-0.12725435	0.30790921	0.50995679	0.12134502	0.274061	0.51511298	0.22405661	0.11830473	0.62269653	0.1687522	0.2807294	0.11234201	0.10051786	0.25892981	0.10214049	0.19301219	0.27682712	0.36191656	0.2346713	0.17825429	0.061931976	0.13722197
18566	185.65	0.41592947	0.066528435	0.13704094	-0.083616768	0.64136298	0.1188572	-0.16455275	0.64060431	0.16156284	-0.29754074	0.57928076	0.0086998024	-0.20568575	0.63305609	-0.18236113	-0.10727584	0.649487	-0.15132851	-0.034078472	1.0228459	-0.011768691	-0.12928355	1.0539502	0.19235706	-0.13353859	1.0574965	-0.19853107	-0.010398766	0.85961523	-0.012020006	-0.028024099	0.97896771	-0.1271707	0.30745404	0.50995267	0.1211435	0.27368134	0.51515302	0.22385728	0.11799513	0.6227616	0.16868556	0.28069739	0.11233733	0.10052052	0.25900653	0.10233863	0.19345255	0.27652252	0.36196344	0.23448941	0.17824266	0.061926895	0.137237
18567	185.66	0.4159187	0.06654409	0.13704147	-0.083940979	0.64140643	0.11884449	-0.1648884	0.64071008	0.16163727	-0.29798752	0.57909094	0.0086838427	-0.2061422	0.63309698	-0.18233391	-0.10813956	0.64905975	-0.15130786	-0.03058934	1.0213065	-0.011613826	-0.12544794	1.0533701	0.19247206	-0.12974083	1.0571758	-0.19843758	-0.008699069	0.85781696	-0.011956222	-0.025071995	0.97737396	-0.12706472	0.30699591	0.50994855	0.12094041	0.27329535	0.51519452	0.22366139	0.11767944	0.62283032	0.16862245	0.28066653	0.11233218	0.10052254	0.25906769	0.10250974	0.19383272	0.2762084	0.36200125	0.23428273	0.17823146	0.061920963	0.13725067
18568	185.67	0.41590848	0.066559021	0.13704109	-0.084206985	0.64147589	0.11883739	-0.16524969	0.64079303	0.16172531	-0.29845288	0.57889307	0.0086866865	-0.20661583	0.63314606	-0.18229753	-0.10900645	0.64865265	-0.15126881	-0.026906054	1.0196333	-0.011446706	-0.12137305	1.0526984	0.19260089	-0.12570718	1.0567656	-0.19833569	-0.0068981948	0.85589594	-0.01187787	-0.021932981	0.97566235	-0.12693687	0.30653632	0.50994623	0.1207365	0.27290436	0.51523712	0.22347012	0.11735773	0.62290015	0.16856273	0.28063971	0.11232761	0.10052401	0.25910629	0.10263399	0.19411566	0.27588794	0.36203415	0.23406485	0.17822092	0.061914513	0.1372634
18569	185.68	0.41589902	0.066573212	0.13703899	-0.084390884	0.64157886	0.1188398	-0.16563249	0.64084515	0.16182385	-0.29893735	0.57868805	0.0087115097	-0.20710828	0.63320605	-0.18224913	-0.10978333	0.64835168	-0.15121754	-0.023020914	1.0178143	-0.011269042	-0.11705227	1.0519275	0.19274464	-0.12142689	1.0562495	-0.19822572	-0.0049901657	0.85384515	-0.011783166	-0.018599346	0.97382062	-0.1267889	0.30607526	0.50994635	0.12053101	0.27250912	0.51527985	0.22328073	0.11702895	0.62296643	0.16850211	0.28062103	0.11232511	0.10052476	0.25912201	0.10270669	0.19429414	0.27556531	0.36206805	0.2338517	0.17821097	0.061907799	0.1372756
